<svg width="296" height="246" viewBox="0 0 296 246" fill="none" xmlns="http://www.w3.org/2000/svg">
<path d="M264.082 113.714C256.337 145.183 241.61 174.706 223.326 193.858C205.555 212.474 187.127 219.101 167.674 214.314C135.148 206.308 94.825 194.361 65.2477 177.158C50.4897 168.574 40.6427 159.937 35.2904 151.885C30.6125 144.847 29.0834 138.045 31.2229 129.353C38.1205 101.326 57.0637 72.964 81.4799 53.5735C106.129 33.9983 131.895 26.8049 152.718 31.9297C184.997 39.874 218.157 50.824 240.709 66.3001C251.725 73.8599 258.53 81.3815 262.088 88.4935C265.314 94.9423 266.777 102.763 264.082 113.714Z" fill="white" stroke="white" stroke-width="60"/>
</svg>
