<svg width="97" height="83" viewBox="0 0 97 83" fill="none" xmlns="http://www.w3.org/2000/svg">
<rect x="27" y="16" width="70" height="46" fill="#D9D9D9"/>
<path d="M1.5 67.8009V8.35096L60.5 2.16548V81.1235L1.5 67.8009Z" fill="#34315A" stroke="white" stroke-width="3"/>
<path d="M62 26H83V37" stroke="#34315A" stroke-width="3"/>
<path d="M83 41L88.1961 35.5H77.8038L83 41Z" fill="#34315A"/>
<rect x="69" y="46.0605" width="8.57108" height="8.57108" transform="rotate(-45 69 46.0605)" fill="#34315A"/>
<path d="M21.8764 52V25.8182H31.2088C33.2457 25.8182 34.9332 26.1889 36.2713 26.9304C37.6094 27.6719 38.6108 28.6861 39.2756 29.973C39.9403 31.2514 40.2727 32.6918 40.2727 34.294C40.2727 35.9048 39.9361 37.3537 39.2628 38.6406C38.598 39.919 37.5923 40.9332 36.2457 41.6832C34.9077 42.4247 33.2244 42.7955 31.196 42.7955H24.7784V39.446H30.8381C32.125 39.446 33.169 39.2244 33.9702 38.7812C34.7713 38.3295 35.3594 37.7159 35.7344 36.9403C36.1094 36.1648 36.2969 35.2827 36.2969 34.294C36.2969 33.3054 36.1094 32.4276 35.7344 31.6605C35.3594 30.8935 34.767 30.2926 33.9574 29.858C33.1563 29.4233 32.0994 29.206 30.7869 29.206H25.8267V52H21.8764Z" fill="white"/>
</svg>
