<svg width="117" height="80" viewBox="0 0 117 80" fill="none" xmlns="http://www.w3.org/2000/svg">
<path d="M59.2597 6.57141L6.83766 36.2013L59.2597 74.1883M59.2597 6.57141L110.162 36.2013L59.2597 74.1883M59.2597 6.57141L110.162 58.9935L59.2597 30.1234L6.83766 58.9935L59.2597 6.57141ZM59.2597 74.1883L110.162 14.1688L59.2597 52.1558L6.83766 14.1688L59.2597 74.1883Z" stroke="#34315A"/>
<circle cx="6.83766" cy="13.4091" r="6.83766" fill="#34315A"/>
<circle cx="110.162" cy="13.4091" r="6.83766" fill="#34315A"/>
<ellipse cx="58.5" cy="6.57145" rx="6.83766" ry="6.07792" fill="#34315A"/>
<circle cx="6.83766" cy="36.2014" r="6.83766" fill="#34315A"/>
<circle cx="110.162" cy="36.2014" r="6.83766" fill="#34315A"/>
<circle cx="58.5" cy="28.604" r="6.83766" fill="#34315A"/>
<ellipse cx="6.83766" cy="58.2337" rx="6.83766" ry="6.07792" fill="#34315A"/>
<ellipse cx="110.162" cy="58.2337" rx="6.83766" ry="6.07792" fill="#34315A"/>
<circle cx="58.5" cy="51.396" r="6.83766" fill="#34315A"/>
<ellipse cx="58.5" cy="73.4285" rx="6.83766" ry="6.07792" fill="#34315A"/>
<path d="M59.2597 29.3636L110.922 13.4091L59.2597 6.57141L7.5974 13.4091L59.2597 29.3636ZM59.2597 29.3636L7.5974 36.961L59.2597 52.9156M59.2597 29.3636L110.922 36.961L59.2597 52.9156M59.2597 52.9156L110.922 58.9935L59.2597 73.4286L7.5974 58.9935L59.2597 52.9156Z" stroke="#34315A"/>
</svg>
