<svg width="73" height="89" viewBox="0 0 73 89" fill="none" xmlns="http://www.w3.org/2000/svg">
<path d="M37 25.6772C46.7431 25.6772 55.4699 27.3265 61.6866 29.9168C64.7993 31.2138 67.1877 32.7072 68.7674 34.2633C70.34 35.8125 71 37.3029 71 38.6772C71 40.0516 70.34 41.5419 68.7674 43.0911C67.1877 44.6473 64.7993 46.1407 61.6866 47.4377C55.4699 50.028 46.7431 51.6772 37 51.6772C27.2569 51.6772 18.5301 50.028 12.3134 47.4377C9.20068 46.1407 6.81228 44.6473 5.23263 43.0911C3.66002 41.5419 3 40.0516 3 38.6772C3 37.3029 3.66002 35.8125 5.23263 34.2633C6.81228 32.7072 9.20068 31.2138 12.3134 29.9168C18.5301 27.3265 27.2569 25.6772 37 25.6772Z" stroke="#34315A" stroke-width="4"/>
<path d="M48.258 32.1769C53.1295 40.6147 56.0646 48.997 56.9297 55.6759C57.3629 59.0201 57.2637 61.8352 56.7059 63.9813C56.1506 66.1178 55.1899 67.4346 53.9997 68.1218C52.8094 68.809 51.1887 68.9825 49.0608 68.3952C46.9233 67.8053 44.4357 66.4836 41.7562 64.4364C36.4046 60.3477 30.6129 53.6147 25.7413 45.1769C20.8698 36.7392 17.9347 28.3568 17.0696 21.6779C16.6364 18.3337 16.7356 15.5186 17.2934 13.3725C17.8488 11.236 18.8094 9.91923 19.9997 9.23205C21.1899 8.54487 22.8106 8.37129 24.9385 8.95861C27.076 9.54857 29.5636 10.8703 32.2431 12.9175C37.5947 17.0061 43.3865 23.7392 48.258 32.1769Z" stroke="#34315A" stroke-width="4"/>
<path d="M48.2579 45.1769C43.3863 53.6147 37.5946 60.3477 32.243 64.4364C29.5634 66.4836 27.0759 67.8053 24.9384 68.3952C22.8104 68.9825 21.1898 68.809 19.9995 68.1218C18.8093 67.4346 17.8486 66.1178 17.2933 63.9813C16.7355 61.8352 16.6363 59.0201 17.0695 55.6759C17.9345 48.997 20.8697 40.6147 25.7412 32.1769C30.6127 23.7392 36.4045 17.0061 41.7561 12.9175C44.4356 10.8703 46.9232 9.54857 49.0607 8.95861C51.1886 8.37129 52.8093 8.54487 53.9995 9.23205C55.1898 9.91923 56.1504 11.236 56.7058 13.3725C57.2636 15.5186 57.3628 18.3337 56.9296 21.6779C56.0645 28.3568 53.1294 36.7392 48.2579 45.1769Z" stroke="#34315A" stroke-width="4"/>
<circle cx="37.5" cy="38.5" r="6.5" fill="#34315A"/>
<path d="M2.041 81.775V86H1.118V76.692H5.018C5.98867 76.692 6.71233 76.887 7.189 77.277C7.69167 77.6843 7.943 78.304 7.943 79.136C7.943 80.1847 7.45767 80.9343 6.487 81.385C6.88567 81.567 7.17167 81.814 7.345 82.126C7.527 82.438 7.63533 82.8843 7.67 83.465L7.748 84.674C7.774 85.0033 7.826 85.259 7.904 85.441C7.982 85.623 8.125 85.8093 8.333 86H7.098C6.968 85.6793 6.88567 85.3283 6.851 84.947L6.76 83.881C6.69933 83.075 6.539 82.5247 6.279 82.23C6.019 81.9267 5.57267 81.775 4.94 81.775H2.041ZM2.041 81.034H4.849C5.629 81.034 6.18367 80.8867 6.513 80.592C6.85967 80.28 7.033 79.838 7.033 79.266C7.033 78.694 6.85967 78.2477 6.513 77.927C6.18367 77.6323 5.629 77.485 4.849 77.485H2.041V81.034ZM15.5016 82.763H10.4576C10.4836 83.6643 10.7176 84.349 11.1596 84.817C11.5409 85.233 12.0436 85.441 12.6676 85.441C13.6469 85.441 14.3099 84.921 14.6566 83.881H15.5016C15.0249 85.415 14.0716 86.182 12.6416 86.182C11.6449 86.182 10.8736 85.8267 10.3276 85.116C9.85092 84.4833 9.61259 83.6643 9.61259 82.659C9.61259 81.5063 9.92459 80.5963 10.5486 79.929C11.0946 79.357 11.7879 79.071 12.6286 79.071C13.5733 79.071 14.3056 79.4133 14.8256 80.098C15.2849 80.696 15.5146 81.4803 15.5146 82.451C15.5146 82.5117 15.5103 82.6157 15.5016 82.763ZM14.6436 82.087C14.6089 81.3763 14.4139 80.8217 14.0586 80.423C13.7033 80.0157 13.2309 79.812 12.6416 79.812C12.0523 79.812 11.5713 80.0113 11.1986 80.41C10.8259 80.8 10.5919 81.359 10.4966 82.087H14.6436ZM17.9554 81.307H17.0714C17.1061 79.8163 18.0031 79.071 19.7624 79.071C21.4178 79.071 22.2454 79.747 22.2454 81.099V84.882C22.2454 85.2113 22.3538 85.376 22.5704 85.376C22.6571 85.376 22.8001 85.3197 22.9994 85.207V85.935C22.7308 86.0303 22.5054 86.078 22.3234 86.078C21.7168 86.078 21.4134 85.7703 21.4134 85.155V84.999C20.8934 85.7877 20.0788 86.182 18.9694 86.182C18.2328 86.182 17.6651 85.987 17.2664 85.597C16.9198 85.259 16.7464 84.8083 16.7464 84.245C16.7464 83.6297 16.9501 83.1443 17.3574 82.789C17.6694 82.5203 18.1721 82.334 18.8654 82.23L21.3744 81.827C21.3831 81.7663 21.3874 81.7057 21.3874 81.645C21.3874 80.917 21.2704 80.4317 21.0364 80.189C20.8111 79.9377 20.3734 79.812 19.7234 79.812C19.1341 79.812 18.6964 79.9333 18.4104 80.176C18.1331 80.41 17.9814 80.787 17.9554 81.307ZM21.4134 82.49L19.0084 82.932C18.0898 83.088 17.6304 83.517 17.6304 84.219C17.6304 84.609 17.7648 84.921 18.0334 85.155C18.3021 85.3803 18.6618 85.493 19.1124 85.493C19.9791 85.493 20.6334 85.168 21.0754 84.518C21.3008 84.1887 21.4134 83.7727 21.4134 83.27V82.49ZM29.7046 81.346H28.8596C28.7729 80.8607 28.5649 80.4837 28.2356 80.215C27.9063 79.9463 27.4903 79.812 26.9876 79.812C26.2596 79.812 25.6963 80.0937 25.2976 80.657C24.9509 81.151 24.7776 81.7923 24.7776 82.581C24.7776 83.517 25.0073 84.245 25.4666 84.765C25.8653 85.2157 26.3809 85.441 27.0136 85.441C28.0883 85.441 28.7296 84.8387 28.9376 83.634H29.7436C29.6049 84.5007 29.2669 85.1593 28.7296 85.61C28.2529 85.9913 27.6679 86.182 26.9746 86.182C25.9866 86.182 25.2153 85.8223 24.6606 85.103C24.1839 84.4703 23.9456 83.6513 23.9456 82.646C23.9456 81.4933 24.2663 80.5877 24.9076 79.929C25.4623 79.357 26.1686 79.071 27.0266 79.071C27.8066 79.071 28.4436 79.3007 28.9376 79.76C29.3623 80.1673 29.6179 80.696 29.7046 81.346ZM33.5945 79.253V79.929H32.3465V84.687C32.3465 84.9123 32.3812 85.0683 32.4505 85.155C32.5285 85.233 32.6629 85.272 32.8535 85.272C33.0702 85.272 33.3085 85.2287 33.5685 85.142L33.7115 85.922C33.2435 86.0347 32.8622 86.091 32.5675 86.091C32.1602 86.091 31.8742 85.9913 31.7095 85.792C31.5449 85.5927 31.4625 85.2503 31.4625 84.765V79.929H30.5005V79.253H31.4625V77.862L32.3465 77.29V79.253H33.5945ZM44.6271 86H43.6781L38.2571 77.823C38.2917 78.421 38.3134 79.669 38.3221 81.567V86H37.4901V76.692H38.4521L43.8601 84.843C43.8167 83.855 43.7951 82.5767 43.7951 81.008V76.692H44.6271V86ZM47.5482 81.307H46.6642C46.6989 79.8163 47.5959 79.071 49.3552 79.071C51.0105 79.071 51.8382 79.747 51.8382 81.099V84.882C51.8382 85.2113 51.9465 85.376 52.1632 85.376C52.2499 85.376 52.3929 85.3197 52.5922 85.207V85.935C52.3235 86.0303 52.0982 86.078 51.9162 86.078C51.3095 86.078 51.0062 85.7703 51.0062 85.155V84.999C50.4862 85.7877 49.6715 86.182 48.5622 86.182C47.8255 86.182 47.2579 85.987 46.8592 85.597C46.5125 85.259 46.3392 84.8083 46.3392 84.245C46.3392 83.6297 46.5429 83.1443 46.9502 82.789C47.2622 82.5203 47.7649 82.334 48.4582 82.23L50.9672 81.827C50.9759 81.7663 50.9802 81.7057 50.9802 81.645C50.9802 80.917 50.8632 80.4317 50.6292 80.189C50.4039 79.9377 49.9662 79.812 49.3162 79.812C48.7269 79.812 48.2892 79.9333 48.0032 80.176C47.7259 80.41 47.5742 80.787 47.5482 81.307ZM51.0062 82.49L48.6012 82.932C47.6825 83.088 47.2232 83.517 47.2232 84.219C47.2232 84.609 47.3575 84.921 47.6262 85.155C47.8949 85.3803 48.2545 85.493 48.7052 85.493C49.5719 85.493 50.2262 85.168 50.6682 84.518C50.8935 84.1887 51.0062 83.7727 51.0062 83.27V82.49ZM56.2684 79.253V79.929H55.0204V84.687C55.0204 84.9123 55.055 85.0683 55.1244 85.155C55.2024 85.233 55.3367 85.272 55.5274 85.272C55.744 85.272 55.9824 85.2287 56.2424 85.142L56.3854 85.922C55.9174 86.0347 55.536 86.091 55.2414 86.091C54.834 86.091 54.548 85.9913 54.3834 85.792C54.2187 85.5927 54.1364 85.2503 54.1364 84.765V79.929H53.1744V79.253H54.1364V77.862L55.0204 77.29V79.253H56.2684ZM58.5182 79.253V86H57.6732V79.253H58.5182ZM58.1022 76.861C58.2322 76.861 58.3448 76.9087 58.4402 77.004C58.5355 77.0993 58.5832 77.2163 58.5832 77.355C58.5832 77.485 58.5355 77.602 58.4402 77.706C58.3448 77.8013 58.2322 77.849 58.1022 77.849C57.9635 77.849 57.8465 77.8013 57.7512 77.706C57.6558 77.602 57.6082 77.485 57.6082 77.355C57.6082 77.2163 57.6558 77.0993 57.7512 77.004C57.8465 76.9087 57.9635 76.861 58.1022 76.861ZM63.09 86H62.206L59.632 79.253H60.607L61.894 82.828C62.0413 83.2353 62.1887 83.6383 62.336 84.037C62.466 84.3837 62.583 84.7 62.687 84.986C62.7997 84.7087 62.9167 84.3923 63.038 84.037C63.1333 83.7683 63.2807 83.3653 63.48 82.828L64.754 79.253H65.69L63.09 86ZM72.3258 82.763H67.2818C67.3078 83.6643 67.5418 84.349 67.9838 84.817C68.3651 85.233 68.8678 85.441 69.4918 85.441C70.4711 85.441 71.1341 84.921 71.4808 83.881H72.3258C71.8491 85.415 70.8958 86.182 69.4658 86.182C68.4691 86.182 67.6978 85.8267 67.1518 85.116C66.6751 84.4833 66.4368 83.6643 66.4368 82.659C66.4368 81.5063 66.7488 80.5963 67.3728 79.929C67.9188 79.357 68.6121 79.071 69.4528 79.071C70.3975 79.071 71.1298 79.4133 71.6498 80.098C72.1091 80.696 72.3388 81.4803 72.3388 82.451C72.3388 82.5117 72.3345 82.6157 72.3258 82.763ZM71.4678 82.087C71.4331 81.3763 71.2381 80.8217 70.8828 80.423C70.5275 80.0157 70.0551 79.812 69.4658 79.812C68.8765 79.812 68.3955 80.0113 68.0228 80.41C67.6501 80.8 67.4161 81.359 67.3208 82.087H71.4678Z" fill="#34315A"/>
</svg>
